HIERARCHY
ROOT Hips
{
	OFFSET 0.000000 0.000000 0.000000
	CHANNELS 6 Xposition Yposition Zposition Zrotation Yrotation Xrotation 
	JOINT LHipJoint
	{
		OFFSET 0.000000 0.000000 0.000000
		CHANNELS 3 Zrotation Yrotation Xrotation
		JOINT LeftUpLeg
		{
			OFFSET 1.363060 -1.794630 0.839290
			CHANNELS 3 Zrotation Yrotation Xrotation
			JOINT LeftLeg
			{
				OFFSET 2.448110 -6.726130 0.000000
				CHANNELS 3 Zrotation Yrotation Xrotation
				JOINT LeftFoot
				{
					OFFSET 2.562200 -7.039590 0.000000
					CHANNELS 3 Zrotation Yrotation Xrotation
					JOINT LeftToeBase
					{
						OFFSET 0.157640 -0.433110 2.322550
						CHANNELS 3 Zrotation Yrotation Xrotation
						End Site
						{
							OFFSET 0.000000 0.000000 0.000000
						}
					}
				}
			}
		}
	}
	JOINT RHipJoint
	{
		OFFSET 0.000000 0.000000 0.000000
		CHANNELS 3 Zrotation Yrotation Xrotation
		JOINT RightUpLeg
		{
			OFFSET -1.305520 -1.794630 0.839290
			CHANNELS 3 Zrotation Yrotation Xrotation
			JOINT RightLeg
			{
				OFFSET -2.542530 -6.985550 0.000000
				CHANNELS 3 Zrotation Yrotation Xrotation
				JOINT RightFoot
				{
					OFFSET -2.568260 -7.056230 0.000000
					CHANNELS 3 Zrotation Yrotation Xrotation
					JOINT RightToeBase
					{
						OFFSET -0.164730 -0.452590 2.363150
						CHANNELS 3 Zrotation Yrotation Xrotation
						End Site
						{
							OFFSET 0.000000 0.000000 0.000000
						}
					}
				}
			}
		}
	}
}
MOTION
Frames: 16
Frame Time: 0.008333
7.433607 17.446911 2.383234 177.949167 -86.731351 -163.162216 -10.141178 0.793335 -0.139522 -11.443128 0.667853 -16.435816 -2.361243 -0.332190 12.194267 0.645330 3.070882 -5.649248 0.128900 -0.000000 -26.755700 10.048176 0.017394 -1.877088 5.593714 -3.494165 -33.529276 0.499232 -3.514430 47.747560 -0.874671 -3.190986 -1.833494 -0.472800 -0.000000 -48.074900
7.301930 17.449806 2.376576 179.397733 -86.660451 -164.699990 -10.187139 0.834250 -0.274779 -11.325384 1.205204 -15.560282 -2.383205 -0.354168 11.667109 0.601269 2.764184 -5.672906 0.112400 0.000000 -27.139300 9.924359 0.106417 -1.704816 5.678697 -2.936316 -33.848193 0.639010 -3.358354 45.648481 -0.932901 -3.539996 -2.045444 -0.529200 0.000000 -48.008300
7.170498 17.450514 2.367762 -179.747514 -86.595297 -165.629465 -10.226823 0.872851 -0.408781 -11.228707 1.718436 -14.707147 -2.406185 -0.376179 11.160805 0.558112 2.463484 -5.681089 0.098600 -0.000000 -27.543100 9.804101 0.188519 -1.525199 5.730448 -2.397942 -34.142979 0.773255 -3.192199 43.440425 -1.000920 -3.935326 -2.129871 -0.601501 0.000000 -47.830300
7.039115 17.449018 2.356918 -179.470652 -86.540179 -165.963786 -10.259917 0.909532 -0.538312 -11.154321 2.192461 -13.876378 -2.429661 -0.398420 10.677142 0.517153 2.176818 -5.680663 0.087000 -0.000000 -27.952300 9.688614 0.263534 -1.340152 5.749662 -1.894600 -34.420223 0.902867 -3.015610 41.127051 -1.071215 -4.337391 -2.082043 -0.688500 0.000000 -47.504100
6.907945 17.445291 2.344211 -179.739492 -86.497367 -165.740709 -10.285331 0.943923 -0.663307 -11.103097 2.616239 -13.056974 -2.453055 -0.421095 10.212549 0.479645 1.912712 -5.678804 0.077000 -0.000000 -28.353300 9.580170 0.331718 -1.154115 5.737613 -1.442390 -34.678559 1.029510 -2.828859 38.711444 -1.134331 -4.700172 -1.893956 -0.787700 -0.000000 -47.031800
6.776618 17.439248 2.329896 179.516999 -86.467761 -165.027351 -10.302242 0.976697 -0.781153 -11.074358 2.984033 -12.251286 -2.476318 -0.444691 9.769612 0.446319 1.674319 -5.687581 0.068000 0.000000 -28.735100 9.481187 0.392249 -0.967165 5.699570 -1.051549 -34.925178 1.155047 -2.631956 36.199126 -1.180286 -4.978918 -1.555693 -0.895400 -0.000000 -46.457999
6.645208 17.430797 2.314223 178.369678 -86.450616 -163.898585 -10.309752 1.007856 -0.891804 -11.066953 3.296221 -11.456789 -2.499594 -0.469474 9.348517 0.417515 1.462179 -5.718289 0.059200 -0.000000 -29.091500 9.394342 0.445084 -0.781053 5.641178 -0.730637 -35.161742 1.281563 -2.425476 33.597727 -1.199279 -5.132518 -1.058877 -1.005400 0.000000 -45.859499
6.513519 17.419838 2.297430 176.869369 -86.441169 -162.408660 -10.306781 1.037620 -0.997872 -11.081262 3.559297 -10.661228 -2.523272 -0.495912 8.941971 0.393398 1.276606 -5.778211 0.050200 -0.000000 -29.424700 9.322624 0.491108 -0.599214 5.566038 -0.484836 -35.383773 1.411018 -2.210692 30.920983 -1.182902 -5.126192 -0.405164 -1.107600 -0.000000 -45.315100
6.381361 17.406223 2.279707 175.102269 -86.438220 -160.644655 -10.293715 1.066982 -1.098688 -11.113639 3.785710 -9.873022 -2.548219 -0.523858 8.557605 0.372926 1.106725 -5.877125 0.040300 0.000000 -29.740100 9.267650 0.530566 -0.420439 5.482418 -0.313561 -35.596524 1.544992 -1.988536 28.186801 -1.126171 -4.940065 0.396593 -1.190500 0.000001 -44.913000
6.248767 17.389847 2.261176 173.090151 -86.434990 -158.637442 -10.269455 1.096235 -1.199104 -11.165326 3.988579 -9.073327 -2.574968 -0.553553 8.182691 0.355766 0.950667 -6.013301 0.029600 0.000000 -30.050999 9.231571 0.566696 -0.249738 5.391419 -0.216260 -35.791283 1.684329 -1.761412 25.422247 -1.026926 -4.560753 1.317815 -1.238000 -0.000000 -44.696101
6.115436 17.370646 2.241881 170.908868 -86.429657 -156.463183 -10.235054 1.126816 -1.299531 -11.232072 4.185446 -8.270123 -2.604479 -0.584388 7.824433 0.340156 0.793124 -6.187890 0.018100 0.000000 -30.372200 9.214136 0.601732 -0.086411 5.299638 -0.186184 -35.972732 1.829331 -1.530828 22.656903 -0.887690 -3.992195 2.319361 -1.236000 0.000000 -44.691200
5.981482 17.348584 2.221832 168.599385 -86.418245 -154.171778 -10.190544 1.159532 -1.402846 -11.311812 4.390369 -7.454890 -2.637036 -0.615849 7.477797 0.325050 0.627290 -6.392853 0.006100 -0.000000 -30.719500 9.214794 0.639815 0.066624 5.209265 -0.217499 -36.137457 1.979253 -1.298948 19.924466 -0.714033 -3.246347 3.347909 -1.171500 0.000000 -44.881300
5.846642 17.323775 2.200992 166.218170 -86.399480 -151.819456 -10.136864 1.195688 -1.509502 -11.400275 4.615063 -6.630578 -2.672831 -0.647196 7.145386 0.309060 0.443430 -6.619670 -0.005800 -0.000000 -31.106000 9.231346 0.684231 0.209326 5.124279 -0.301327 -36.288978 2.132765 -1.066939 17.254991 -0.514528 -2.347759 4.345712 -1.038600 -0.000000 -45.230800
5.710938 17.296273 2.179373 163.809841 -86.369706 -149.455946 -10.074006 1.235799 -1.621102 -11.495127 4.862464 -5.787545 -2.711128 -0.677788 6.819034 0.291925 0.243252 -6.853507 -0.016500 -0.000000 -31.538900 9.261299 0.739364 0.338470 5.046870 -0.431772 -36.425291 2.287764 -0.835993 14.675780 -0.298445 -1.324628 5.254391 -0.837900 0.000000 -45.679500
5.574109 17.266347 2.156912 161.427053 -86.331737 -147.128295 -10.003876 1.280772 -1.735035 -11.590099 5.134801 -4.941072 -2.751592 -0.706494 6.510909 0.272580 0.019342 -7.087678 -0.025500 0.000000 -32.019200 9.300753 0.806527 0.457267 4.981717 -0.598842 -36.554962 2.441829 -0.605208 12.199727 -0.076267 -0.219519 6.030068 -0.581400 -0.000000 -46.184100
5.436209 17.234230 2.133590 159.102424 -86.286873 -144.868261 -9.927568 1.330492 -1.849372 -11.681056 5.424739 -4.096963 -2.793077 -0.732371 6.224963 0.251286 -0.223764 -7.313456 -0.032100 0.000000 -32.540000 9.346183 0.887046 0.567002 4.931853 -0.794129 -36.681220 2.591970 -0.373360 9.829688 0.142672 0.922730 6.644425 -0.287500 -0.000000 -46.701500
